# Blender v2.78 (sub 0) OBJ File: 'Simple bake.blend'
# www.blender.org
o Cube
v -1.000000 0.000000 1.000000
v -1.000000 2.000000 1.000000
v -1.000000 0.000000 -1.000000
v -1.000000 2.000000 -1.000000
v 1.000000 0.000000 1.000000
v 1.000000 2.000000 1.000000
v 1.000000 0.000000 -1.000000
v 1.000000 2.000000 -1.000000
v -3.000000 0.000000 3.000000
v -3.000000 0.000000 -3.000000
v 3.000000 0.000000 3.000000
v 3.000000 0.000000 -3.000000
v -1.000000 0.000000 -1.000000
v -1.000000 0.000000 -1.000000
v -1.000000 0.000000 1.000000
v -1.000000 0.000000 1.000000
v -1.000000 2.000000 1.000000
v -1.000000 2.000000 1.000000
v -1.000000 2.000000 -1.000000
v -1.000000 2.000000 -1.000000
v 1.000000 0.000000 -1.000000
v 1.000000 0.000000 -1.000000
v 1.000000 2.000000 -1.000000
v 1.000000 2.000000 -1.000000
v 1.000000 0.000000 1.000000
v 1.000000 0.000000 1.000000
v 1.000000 2.000000 1.000000
v 1.000000 2.000000 1.000000
vt 0.3323 0.3323
vt 0.0010 0.0010
vt 0.3323 0.0010
vt 0.3323 0.6657
vt 0.0010 0.3343
vt 0.3323 0.3343
vt 0.6657 0.3323
vt 0.3343 0.0010
vt 0.6657 0.0010
vt 0.6657 0.6657
vt 0.3343 0.3343
vt 0.6657 0.3343
vt 0.3323 0.9990
vt 0.0010 0.6677
vt 0.3323 0.6677
vt 0.9990 0.3323
vt 0.6677 0.0010
vt 0.9990 0.0010
vt 0.6657 0.9990
vt 0.3343 0.6677
vt 0.6657 0.6677
vt 0.9990 0.6657
vt 0.6677 0.3343
vt 0.9990 0.3343
vt 0.9990 0.9990
vt 0.6677 0.6677
vt 0.9990 0.6677
vt 0.0010 0.3323
vt 0.0010 0.6657
vt 0.3343 0.3323
vt 0.3343 0.6657
vt 0.0010 0.9990
vt 0.6677 0.3323
vt 0.3343 0.9990
vt 0.6677 0.6657
vt 0.6677 0.9990
vn 1.0000 0.0000 0.0000
vn 0.0000 0.0000 1.0000
vn -1.0000 0.0000 0.0000
vn 0.0000 0.0000 -1.0000
vn 0.0000 -1.0000 0.0000
s 1
f 13/1/1 17/2/1 15/3/1
f 21/4/2 20/5/2 14/6/2
f 25/7/3 24/8/3 22/9/3
f 16/10/4 28/11/4 26/12/4
f 9/13/5 3/14/5 1/15/5
f 6/16/5 4/17/5 8/18/5
f 12/19/5 5/20/5 7/21/5
f 11/22/5 1/23/5 5/24/5
f 10/25/5 7/26/5 3/27/5
f 13/1/1 19/28/1 17/2/1
f 21/4/2 23/29/2 20/5/2
f 25/7/3 27/30/3 24/8/3
f 16/10/4 18/31/4 28/11/4
f 9/13/5 10/32/5 3/14/5
f 6/16/5 2/33/5 4/17/5
f 12/19/5 11/34/5 5/20/5
f 11/22/5 9/35/5 1/23/5
f 10/25/5 12/36/5 7/26/5
